<mxfile host="app.diagrams.net" modified="2024-06-24T21:22:34.026Z" agent="Mozilla/5.0 (X11; Linux x86_64; rv:124.0) Gecko/20100101 Firefox/124.0" version="24.6.2" etag="nIQHi2ttYLh75tV--_Xf" type="github">
  <diagram name="Page-1" id="xP68E92-qJ6DrZM_VRw5">
    <mxGraphModel>
      <root>
        <mxCell id="0" />
        <mxCell id="1" parent="0" />
      </root>
    </mxGraphModel>
  </diagram>
</mxfile>
